<svg width="516" height="123" viewBox="0 0 516 123" fill="none" xmlns="http://www.w3.org/2000/svg">
<path d="M181.185 100H164.829V37.2623C164.829 36.6392 164.596 36.094 164.128 35.6267C163.739 35.1593 163.233 34.9257 162.609 34.9257H156.301C155.678 34.9257 155.132 35.1593 154.665 35.6267C154.276 36.094 154.081 36.6392 154.081 37.2623V100H137.725V38.6642C137.725 28.3832 142.554 23.2427 152.212 23.2427H166.699C176.356 23.2427 181.185 28.3832 181.185 38.6642V100ZM232.572 57.2402V85.7467C232.572 96.0278 227.743 101.168 218.085 101.168H204.884C195.226 101.168 190.397 96.0278 190.397 85.7467V57.2402C190.397 46.9592 195.226 41.8187 204.884 41.8187H218.085C227.743 41.8187 232.572 46.9592 232.572 57.2402ZM216.917 89.018V53.8521C216.917 53.2291 216.683 52.6838 216.216 52.2165C215.827 51.7492 215.32 51.5155 214.697 51.5155H208.272C207.649 51.5155 207.103 51.7492 206.636 52.2165C206.247 52.6838 206.052 53.2291 206.052 53.8521V89.018C206.052 89.6411 206.247 90.1863 206.636 90.6536C207.103 91.1209 207.649 91.3546 208.272 91.3546H214.697C215.32 91.3546 215.827 91.1209 216.216 90.6536C216.683 90.1863 216.917 89.6411 216.917 89.018ZM262.849 91.0041H267.522V101.168H256.54C246.882 101.168 242.053 96.0278 242.053 85.7467V30.603H257.708V42.987H267.522V54.3195H257.708V85.3962C257.708 87.5771 258.137 89.0569 258.993 89.8358C259.85 90.6147 261.135 91.0041 262.849 91.0041ZM302.23 41.8187C311.888 41.8187 316.717 46.9592 316.717 57.2402V75.6994H290.197V87.616C290.197 88.2391 290.392 88.7843 290.781 89.2516C291.248 89.719 291.794 89.9526 292.417 89.9526H298.842C299.465 89.9526 299.972 89.719 300.361 89.2516C300.828 88.7843 301.062 88.2391 301.062 87.616V81.3072H316.717V85.7467C316.717 96.0278 311.888 101.168 302.23 101.168H289.029C279.371 101.168 274.542 96.0278 274.542 85.7467V57.2402C274.542 46.9592 279.371 41.8187 289.029 41.8187H302.23ZM290.197 65.4183H301.062V54.9036C301.062 54.2805 300.828 53.7353 300.361 53.268C299.972 52.8007 299.465 52.567 298.842 52.567H292.417C291.794 52.567 291.248 52.8007 290.781 53.268C290.392 53.7353 290.197 54.2805 290.197 54.9036V65.4183Z" fill="white"/>
<path d="M341.085 70.3252V100H324.728V24.411H358.843V38.5474H341.085V56.6561H357.674V70.3252H341.085ZM382.328 100H366.673V24.411H382.328V100ZM433.807 57.2402V85.7467C433.807 96.0278 428.979 101.168 419.321 101.168H406.119C396.461 101.168 391.632 96.0278 391.632 85.7467V57.2402C391.632 46.9592 396.461 41.8187 406.119 41.8187H419.321C428.979 41.8187 433.807 46.9592 433.807 57.2402ZM418.152 89.018V53.8521C418.152 53.2291 417.919 52.6838 417.451 52.2165C417.062 51.7492 416.556 51.5155 415.933 51.5155H409.507C408.884 51.5155 408.339 51.7492 407.871 52.2165C407.482 52.6838 407.287 53.2291 407.287 53.8521V89.018C407.287 89.6411 407.482 90.1863 407.871 90.6536C408.339 91.1209 408.884 91.3546 409.507 91.3546H415.933C416.556 91.3546 417.062 91.1209 417.451 90.6536C417.919 90.1863 418.152 89.6411 418.152 89.018ZM469.224 42.987H484.179L492.707 87.2655L499.366 42.987H514.554L502.054 100H483.127L476.701 64.8342L470.276 100H451.349L438.849 42.987H454.036L460.696 87.2655L469.224 42.987Z" fill="#6AA2C7"/>
<path d="M100.546 111.815L40.0706 111.83C26.7481 111.841 13.4188 111.958 0.0975037 111.815C0.107155 109.162 0.0746536 106.51 7.62939e-06 103.859C11.7681 103.998 23.5364 104.046 35.3049 104.003C39.9129 104.017 49.7254 104.602 53.8055 103.653C59.5573 102.315 65.0249 99.049 69.7323 95.5816C66.6614 95.39 63.5574 95.4735 60.4809 95.4712L46.3186 95.4453L0.109695 95.4388C0.122902 91.83 0.108681 88.2215 0.0670395 84.6133L47.2174 84.539C58.8565 84.5443 70.4887 84.6731 82.1259 84.3783C84.2971 81.86 86.1782 79.199 87.9808 76.4092C80.6717 76.2058 73.3029 76.4057 65.9869 76.4L22.3519 76.3402C15.0101 76.3295 7.52846 76.648 0.20034 76.2854C0.0129547 72.8333 0.127975 69.3187 0.109695 65.859C10.522 65.6834 20.9697 65.862 31.3847 65.8673L93.3281 65.9199C94.5661 63.2668 95.6151 60.541 96.4751 57.7425C79.6826 57.498 62.8768 57.5977 46.0821 57.5768L17.1562 57.5665C11.6806 57.5642 6.18439 57.661 0.711449 57.509C1.59352 54.028 2.41315 50.5263 3.45937 47.0899C12.2401 46.8511 21.0756 47.0639 29.8636 47.0556C52.5638 47.1873 75.2638 47.1381 97.9635 46.9078C97.997 44.2314 98.0048 41.5548 97.9868 38.8781C86.3755 38.4832 74.6869 38.7524 63.0665 38.7483L7.30108 38.7308C8.55411 36.7698 9.90578 34.8793 11.3561 33.0593C12.8064 31.2393 14.3474 29.4997 15.979 27.8405C18.912 27.5312 22.0251 27.7544 24.9806 27.7593L42.1619 27.7879L97.9635 27.8568L97.9776 19.6352L25.8322 19.6508C31.3741 16.6797 36.7526 14.1059 42.932 12.6563C51.5832 10.6267 60.6999 11.1287 69.5156 11.1413C79.8595 11.2132 90.2029 11.166 100.546 11C100.754 16.9364 100.625 22.9095 100.623 28.8501L100.609 59.9857L100.558 91.4005C100.561 98.1966 100.77 105.022 100.546 111.815Z" fill="#62B6EF"/>
</svg>
