<svg width="101" height="101" viewBox="0 0 101 101" fill="none" xmlns="http://www.w3.org/2000/svg">
<path d="M100.546 100.815L40.0706 100.83C26.7481 100.841 13.4188 100.958 0.0975037 100.815C0.107155 98.1624 0.0746536 95.5104 7.62939e-06 92.8588C11.7681 92.9982 23.5364 93.0462 35.3049 93.0028C39.9129 93.0169 49.7254 93.6019 53.8055 92.6528C59.5573 91.3152 65.0249 88.049 69.7323 84.5816C66.6614 84.39 63.5574 84.4735 60.4809 84.4712L46.3186 84.4453L0.109695 84.4388C0.122902 80.83 0.108681 77.2215 0.0670395 73.6133L47.2174 73.539C58.8565 73.5443 70.4887 73.6731 82.1259 73.3783C84.2971 70.86 86.1782 68.199 87.9808 65.4092C80.6717 65.2058 73.3029 65.4057 65.9869 65.4L22.3519 65.3402C15.0101 65.3295 7.52846 65.648 0.20034 65.2854C0.0129547 61.8333 0.127975 58.3187 0.109695 54.859C10.522 54.6834 20.9697 54.862 31.3847 54.8673L93.3281 54.9199C94.5661 52.2668 95.6151 49.541 96.4751 46.7425C79.6826 46.498 62.8768 46.5977 46.0821 46.5768L17.1562 46.5665C11.6806 46.5642 6.18439 46.661 0.711449 46.509C1.59352 43.028 2.41315 39.5263 3.45937 36.0899C12.2401 35.8511 21.0756 36.0639 29.8636 36.0556C52.5638 36.1873 75.2638 36.1381 97.9635 35.9078C97.997 33.2314 98.0048 30.5548 97.9868 27.8781C86.3755 27.4832 74.6869 27.7524 63.0665 27.7483L7.30108 27.7308C8.55411 25.7698 9.90578 23.8793 11.3561 22.0593C12.8064 20.2393 14.3474 18.4997 15.979 16.8405C18.912 16.5312 22.0251 16.7544 24.9806 16.7593L42.1619 16.7879L97.9635 16.8568L97.9776 8.63522L25.8322 8.65082C31.3741 5.67973 36.7526 3.1059 42.932 1.65634C51.5832 -0.37326 60.6999 0.128731 69.5156 0.141296C79.8595 0.21315 90.2029 0.166039 100.546 -1.52588e-05C100.754 5.93644 100.625 11.9095 100.623 17.8501L100.609 48.9857L100.558 80.4005C100.561 87.1966 100.77 94.0224 100.546 100.815Z" fill="#62B6EF"/>
</svg>
